<?xml version="1.0" encoding="UTF-8"?><svg id="a" xmlns="http://www.w3.org/2000/svg" viewBox="0 0 588.96 598.08"><defs><style>.b{fill:#fff;}</style></defs><path d="M588.36,598.08H0V.48c1.2-.04,2.39-.11,3.59-.11,132.89,0,265.78,0,398.67,0,60.89,0,121.78,0,182.67,0,1.1,0,2.19,0,3.55,0V3.68c0,197.18,0,394.36,0,591.53,0,.96-.07,1.91-.11,2.87Zm-88.06-318.36l-.75-.42c-.66,.61-1.39,1.17-1.97,1.85-1.43,1.72-2.75,3.53-4.19,5.24-6.62,7.88-13.12,15.88-19.96,23.57-7.48,8.41-15.21,16.62-23.62,24.14-5.18,4.63-10.24,9.4-15.52,13.9-10.04,8.56-20.55,16.51-31.73,23.51-6.28,3.93-12.66,7.74-19.19,11.24-5.95,3.19-11.97,6.3-18.33,8.66-3.87,1.44-7.69,2.99-11.53,4.51-5.04,1.99-10.24,3.47-15.51,4.69-5.66,1.31-11.32,2.64-17.02,3.78-2.81,.56-5.71,.63-8.54,1.06-8.89,1.36-17.83,1.49-26.78,1-4.38-.24-8.75-.76-13.11-1.33-4.18-.55-8.34-1.31-12.5-1.99-.23-.04-.46-.15-.69-.21-3.16-.82-6.34-1.57-9.49-2.46-2.83-.8-5.66-1.65-8.44-2.63-3.15-1.11-6.25-2.36-9.35-3.62-3.17-1.3-6.35-2.57-9.42-4.08-3.21-1.59-6.31-3.41-9.41-5.2-3.86-2.23-7.85-4.31-11.49-6.87-8.03-5.64-15.77-11.67-22.88-18.5-10.24-9.83-19.4-20.54-27.25-32.38-4.81-7.26-9.14-14.8-12.91-22.65-1.79-3.73-3.47-7.53-4.96-11.38-1.41-3.63-2.61-7.35-3.73-11.09-1.47-4.88-2.95-9.77-4.07-14.74-.93-4.11-1.28-8.35-1.99-12.51-1.19-6.96-1.38-13.97-1.37-21.02,0-6.12,1.24-12.07,1.98-18.09,.31-2.52,.88-5.04,1.6-7.48,1.2-4.04,2.61-8.02,3.94-12.03,1.88-5.69,4.28-11.17,7.12-16.43,3.76-6.95,7.83-13.72,12.67-19.99,2.44-3.16,4.84-6.35,7.44-9.38,5.46-6.37,11.3-12.37,17.68-17.86,6.3-5.43,12.77-10.62,19.7-15.2,5.25-3.46,10.7-6.63,16.21-9.68,4.87-2.69,9.9-5.11,14.93-7.5,2.87-1.36,5.85-2.5,8.82-3.63,3.72-1.41,7.43-2.88,11.24-4.01,5.35-1.59,10.76-2.97,16.18-4.31,3.25-.8,6.55-1.41,9.86-1.97,2.83-.48,5.69-.78,8.54-1.15,1.27-.17,2.53-.42,3.8-.46,5.91-.22,11.81-.44,17.72-.54,2.79-.05,5.59,.13,8.38,.29,3.51,.2,7.03,.31,10.5,.79,4.58,.64,9.13,1.49,13.65,2.47,4.98,1.07,9.99,2.13,14.84,3.66,5.08,1.6,10.05,3.59,14.95,5.68,5.05,2.16,10.1,4.38,14.88,7.05,5.49,3.07,10.83,6.47,15.99,10.08,5.03,3.51,9.91,7.27,14.56,11.27,6.42,5.52,12.59,11.34,18.01,17.88,4.43,5.35,8.71,10.82,13.11,16.19,1.05,1.28,2.26,2.44,3.48,3.56,1.4,1.3,3.29,1.5,5.01,2.12,3.9,1.41,7.84,1.37,11.81,.58,4.89-.97,9.5-2.73,13.56-5.66,3.45-2.49,6.54-5.41,8.71-9.11,1.9-3.23,3.24-6.66,3.85-10.46,.51-3.14,.11-5.59-1.76-8.27-7.01-10.04-14.63-19.58-22.96-28.54-8.83-9.5-18.56-18.02-28.92-25.8-7.72-5.8-15.82-11.04-24.26-15.73-3.97-2.2-8.06-4.19-12.17-6.11-4.83-2.26-9.72-4.37-14.61-6.49-1.6-.69-3.29-1.18-4.94-1.76-3.67-1.31-7.31-2.71-11.02-3.9-3.33-1.07-6.73-1.94-10.12-2.83-2.7-.71-5.39-1.44-8.13-1.98-3.75-.73-7.57-1.13-11.3-1.94-6.74-1.45-13.58-2.26-20.41-2.65-9.71-.56-19.46-1.1-29.21-.46-4.22,.28-8.47,.26-12.69,.58-3.26,.25-6.5,.77-9.74,1.24-5.13,.73-10.26,1.44-15.36,2.32-3.69,.63-7.34,1.5-11,2.29-3.12,.67-6.26,1.24-9.33,2.08-4.52,1.24-9.01,2.62-13.47,4.06-5.29,1.72-10.59,3.44-15.79,5.4-4.75,1.79-9.4,3.87-14.07,5.9-2.99,1.3-5.98,2.64-8.89,4.11-4.19,2.12-8.37,4.3-12.46,6.61-5.28,2.98-10.55,5.97-15.67,9.21-4.66,2.94-9.19,6.08-13.62,9.35-5.4,3.98-10.81,7.97-15.88,12.33-7.32,6.29-14.64,12.61-21.08,19.86-3.82,4.3-7.92,8.36-11.55,12.81-4.59,5.62-8.99,11.41-13.16,17.35-4.22,6-8.09,12.26-12.04,18.45-1.24,1.95-2.34,4-3.36,6.07-2.97,6.08-5.91,12.18-8.77,18.32-1.48,3.17-2.77,6.44-4.09,9.68-.75,1.84-1.41,3.72-2.08,5.6-.93,2.62-1.85,5.24-2.72,7.89-.74,2.27-1.42,4.56-2.1,6.85-.75,2.52-1.57,5.03-2.2,7.58-.83,3.32-1.54,6.68-2.25,10.03-.84,3.98-1.83,7.94-2.4,11.96-.84,5.92-1.41,11.89-2.04,17.84-1.07,10.18-1.76,20.39-1.19,30.63,.44,7.89,.9,15.8,1.71,23.66,.48,4.66,.9,9.38,2.39,13.9,.27,.82,.24,1.74,.4,2.6,.17,.94,.36,1.88,.59,2.8,.8,3.25,1.61,6.49,2.43,9.73,.72,2.86,1.38,5.73,2.2,8.56,1.24,4.28,2.57,8.53,3.9,12.79,1.21,3.88,2.35,7.78,3.75,11.59,1.92,5.24,4.04,10.4,6.11,15.58,1.15,2.88,2.24,5.8,3.59,8.6,2.84,5.89,5.73,11.76,8.79,17.53,2.91,5.5,5.92,10.95,9.15,16.26,2.9,4.77,6.17,9.31,9.25,13.98,6.05,9.16,13.12,17.51,20.38,25.7,3.81,4.3,7.99,8.29,12.12,12.29,3.61,3.5,7.36,6.85,11.1,10.21,1.72,1.54,3.52,3.01,5.36,4.41,3.62,2.76,7.22,5.55,10.96,8.13,5.31,3.68,10.67,7.29,16.13,10.72,3.91,2.46,7.98,4.67,12.05,6.85,3.72,1.99,7.49,3.91,11.35,5.61,5.25,2.31,10.58,4.41,15.91,6.53,3.47,1.39,6.98,2.69,10.5,3.96,1.94,.7,3.93,1.3,5.92,1.86,2.53,.71,5.08,1.37,7.63,2,3.93,.98,7.88,1.93,11.82,2.9,.7,.17,1.38,.39,2.08,.54,1.55,.34,3.11,.65,4.67,.96,1.02,.2,2.04,.38,3.05,.57,1.57,.3,3.12,.64,4.7,.88,1.42,.22,2.88,.21,4.28,.51,6.74,1.46,13.62,1.91,20.45,2.32,9.48,.57,19.01,.39,28.51,.4,4.15,0,8.3-.23,12.45-.52,3.34-.23,6.68-.62,10-1.07,5.61-.76,11.22-1.55,16.82-2.46,3.7-.6,7.36-1.4,11.03-2.15,3.2-.66,6.39-1.36,9.57-2.09,1.86-.43,3.72-.88,5.56-1.42,2.59-.77,5.16-1.62,7.74-2.44,2.12-.67,4.24-1.35,6.37-2.02,2.28-.72,4.59-1.34,6.82-2.17,3.27-1.22,6.48-2.59,9.72-3.9,4.35-1.76,8.77-3.35,13.02-5.31,5.43-2.51,10.82-5.12,16.04-8.03,6.75-3.76,13.41-7.71,19.94-11.85,12.44-7.88,23.98-16.94,34.86-26.87,7.15-6.53,13.89-13.45,20.25-20.72,5.46-6.25,10.6-12.77,15.36-19.6,4.93-7.09,9.7-14.26,13.83-21.84,2.89-5.32,5.49-10.8,8.17-16.23,1.48-3,3.01-5.99,4.22-9.09,2.34-6.01,4.5-12.1,6.69-18.17,.68-1.87,1.22-3.79,1.8-5.7,.85-2.82,1.74-5.62,2.49-8.47,.85-3.24,1.6-6.51,2.33-9.77,.8-3.58,1.69-7.15,2.25-10.76,.85-5.52,1.24-11.12,2.19-16.61,1.46-8.4,1.29-16.88,1.62-25.33,.24-6.3-.1-12.62-.23-18.93-.07-3.59-.05-7.21-.42-10.78-.73-7.06-1.75-14.1-2.57-21.16-.27-2.33-.91-4.47-1.99-6.57-2.66-5.17-6.85-8.52-12.35-9.82-4.8-1.14-9.74-.85-14.21,1.67-5.22,2.94-8.01,7.43-7.93,13.5,.02,1.83,.49,3.65,.51,5.48,.05,4.55,.08,9.1-.09,13.65-.28,7.58-.67,15.16-1.12,22.74-.2,3.34-.64,6.68-1.03,10.01-.17,1.51-.47,3-.72,4.49-.77,4.65-1.51,9.3-2.32,13.94-.47,2.67-1,5.33-1.58,7.97-.69,3.19-1.4,6.38-2.21,9.54-.69,2.7-1.53,5.37-2.33,8.04-1.23,4.12-2.39,8.27-3.77,12.34-1.26,3.69-2.73,7.31-4.19,10.93-1.82,4.51-3.67,9.01-5.6,13.47-3.12,7.19-7.12,13.92-11.09,20.65-2.63,4.46-5.54,8.77-8.51,13.01-3.16,4.5-6.53,8.86-9.86,13.24-.51,.66-1.09,1.55-2.43,1.32,.21-.54,.28-.94,.49-1.24,1.94-2.76,2.39-5.84,2.11-9.11-.09-1.03,.06-2.08-.03-3.12-.25-2.94-.52-5.88-.87-8.81-.14-1.13-.59-2.21-1.88-2.53-1.27-.31-2.15,.41-2.91,1.28-.63,.72-1.33,1.43-1.75,2.26-2.03,4.06-4.19,8.08-5.89,12.29-1.34,3.32-2.05,6.85-1.91,10.54,.15,3.75-.05,7.51-.04,11.27,0,1.79-.54,3.26-1.89,4.47-3.99,3.56-7.95,7.16-11.94,10.73-.64,.58-1.3,1.24-2.41,.61-.06-.42-.15-.88-.18-1.34-.39-7.1-.72-14.2-1.2-21.29-.09-1.31-.6-2.65-1.16-3.85-.79-1.69-1.53-1.78-2.92-.57-2.05,1.78-4.08,3.58-6.13,5.36-5.2,4.52-10.76,8.54-16.6,12.16-5.15,3.19-10.37,6.29-15.61,9.34-2.56,1.49-3.68,3.75-3.71,6.54-.04,3.83,.15,7.66,.21,11.5,.05,3.6,.06,7.19,.05,10.79,0,1-.28,1.96-1.29,2.39-4.4,1.87-8.8,3.75-13.24,5.52-1.3,.52-1.9-.04-1.96-1.5-.01-.4,.06-.8,.09-1.19,.35-5.02,.73-10.04,1.03-15.06,.13-2.23,.16-4.48,.1-6.71-.07-2.45-1.4-4.06-3.79-4.57-1.31-.28-2.69-.41-4.03-.35-2.79,.11-5.58,.34-8.36,.6-6.52,.62-13.04,1.25-19.55,1.94-8.02,.84-16.03,1.86-24.06,2.58-3.31,.29-5.72,1.72-7.67,4.24-1.67,2.15-1.99,4.67-2,7.25-.03,7.75,0,15.51,0,23.26,0,.72,0,1.44-.05,2.16-.09,1.18-.75,1.92-1.9,2.16-.7,.15-1.42,.24-2.13,.25-3.6,.03-7.19,.05-10.79,.01-2.67-.03-3.13-.52-3.14-3.32-.02-5.04,0-10.07,0-15.11,0-3.12-.02-6.24,.01-9.35,.05-4.68-3.62-9.9-9.06-10.28-9.16-.63-18.28-1.8-27.41-2.78-4.21-.45-8.4-1.01-12.61-1.46-3.81-.41-7.63-.74-11.45-1.07-1.03-.09-2.08-.18-3.11-.08-3.74,.36-5.72,2.58-5.72,6.32,0,2.56-.02,5.12,.13,7.67,.3,5.02,.72,10.04,1.08,15.06,.15,2.21-.28,2.57-2.39,2.07-.85-.2-1.72-.38-2.53-.69-3.49-1.33-6.95-2.76-10.45-4.06-2.31-.86-3.02-1.69-3.01-4.25,.02-3.12,.13-6.23,.16-9.35,.03-3.36,.06-6.71,.02-10.07-.04-3.04-1.34-5.23-4.18-6.68-4.05-2.06-7.94-4.43-11.9-6.66-4.31-2.43-8.7-4.72-12.89-7.33-4.39-2.74-8.6-5.78-12.87-8.72-.88-.61-1.44-1.95-2.78-1.45-1.35,.51-1.28,1.89-1.51,3.05-.09,.47-.16,.95-.19,1.43-.26,4.22-.56,8.45-.75,12.67-.11,2.39-.03,4.79-.05,7.18,0,.46-.11,.91-.2,1.6-.64-.18-1.25-.18-1.62-.48-4.35-3.5-8.67-7.04-12.99-10.58-1.73-1.42-2.37-3.3-2.37-5.52,0-3.84-.1-7.67-.18-11.51-.09-4.48-1.03-8.73-3.71-12.42-1.97-2.71-4.04-5.35-6.08-8.01-.29-.38-.64-.73-1.02-1.01-1.19-.9-2.34-.63-2.86,.77-.3,.81-.42,1.71-.46,2.58-.2,4.55-.34,9.1-.52,13.65-.04,.9-.18,1.8-.28,2.76-1.97-.13-2.78-1.41-3.68-2.47-2.46-2.94-4.89-5.9-7.26-8.92-5.09-6.47-9.82-13.19-14.15-20.2-3.7-5.98-7.04-12.15-10.19-18.42-3.07-6.13-6.08-12.29-8.44-18.74-1.67-4.56-3.35-9.12-4.88-13.73-1.63-4.91-3.12-9.87-4.6-14.83-.77-2.6-1.42-5.24-2.06-7.87-.83-3.4-1.73-6.8-2.38-10.24-.87-4.62-1.52-9.28-2.28-13.92-.27-1.65-.67-3.29-.88-4.94-.36-2.77-.57-5.56-.92-8.33-.82-6.44-1.36-12.9-.66-19.36,.46-4.29,2.15-8.2,5.52-11.11,1.91-1.65,4.21-2.96,6.78-2.31,2.62,.67,5,1.96,6.69,4.33,2.6,3.64,3.73,7.78,3.99,12.1,.36,6.08,2.78,11.6,4.21,17.39,.57,2.3,1.59,4.5,2.41,6.74,1.46,3.96,2.82,7.95,4.42,11.86,1.5,3.68,3.4,7.2,4.85,10.9,2.36,6.05,5.54,11.68,8.76,17.26,4.02,6.98,8.43,13.75,13.04,20.36,6.82,9.77,14.47,18.9,22.99,27.25,3.59,3.52,7.16,7.09,10.95,10.38,4.34,3.76,8.91,7.25,13.4,10.84,6.12,4.89,12.67,9.18,19.42,13.11,6.74,3.93,13.52,7.82,20.76,10.81,3.23,1.33,6.43,2.76,9.67,4.07,2.88,1.16,5.78,2.26,8.7,3.32,2.46,.9,4.94,1.77,7.44,2.55,2.58,.81,5.19,1.53,7.8,2.24,3.07,.84,6.13,1.74,9.24,2.42,3.66,.8,7.35,1.47,11.05,2.05,5.76,.9,11.52,1.79,17.3,2.44,3.64,.41,7.34,.44,11.01,.5,11.34,.18,22.69,.54,33.96-1.3,1.42-.23,2.87-.23,4.29-.45,4.09-.65,8.2-1.27,12.26-2.09,3.59-.72,7.14-1.67,10.7-2.55,2.63-.65,5.28-1.24,7.85-2.08,3.77-1.23,7.51-2.6,11.22-4.03,4.75-1.83,9.51-3.67,14.18-5.69,7.69-3.34,14.93-7.56,22.03-12,7.73-4.83,15.06-10.24,22-16.14,9.02-7.68,17.21-16.18,24.71-25.37,7.48-9.18,13.99-19.01,19.79-29.3,2.66-4.72,5.06-9.59,7.37-14.5,1.9-4.03,3.53-8.19,5.19-12.33,1.22-3.03,2.31-6.1,3.42-9.17,.86-2.39,1.71-4.79,2.46-7.22,.8-2.58,1.5-5.2,2.22-7.81,.85-3.07,1.79-6.12,2.51-9.21,.99-4.27,1.86-8.57,2.71-12.88,.52-2.63,.88-5.3,1.31-7.95Z"/><path class="b" d="M588.36,598.08c.04-.96,.11-1.91,.11-2.87,0-197.18,0-394.36,0-591.53V.37c-1.36,0-2.45,0-3.55,0-60.89,0-121.78,0-182.67,0-132.89,0-265.78,0-398.67,0-1.2,0-2.39,.07-3.59,.11C.08,.32,.15,.03,.24,.03,.88-.01,1.52,0,2.16,0H588.84V3.48c0,197.48,0,394.96-.03,592.44,0,.7,.55,1.63-.45,2.16Z"/><path class="b" d="M500.3,279.72c-.43,2.65-.79,5.32-1.31,7.95-.84,4.3-1.71,8.61-2.71,12.88-.72,3.1-1.66,6.15-2.51,9.21-.73,2.61-1.42,5.23-2.22,7.81-.75,2.43-1.6,4.83-2.46,7.22-1.11,3.07-2.2,6.15-3.42,9.17-1.66,4.14-3.29,8.3-5.19,12.33-2.31,4.9-4.71,9.78-7.37,14.5-5.8,10.29-12.3,20.13-19.79,29.3-7.49,9.19-15.68,17.69-24.71,25.37-6.94,5.91-14.27,11.31-22,16.14-7.1,4.44-14.34,8.66-22.03,12-4.67,2.03-9.43,3.86-14.18,5.69-3.71,1.43-7.44,2.8-11.22,4.03-2.57,.84-5.22,1.43-7.85,2.08-3.56,.88-7.1,1.83-10.7,2.55-4.06,.82-8.17,1.44-12.26,2.09-1.42,.23-2.87,.22-4.29,.45-11.27,1.83-22.62,1.48-33.96,1.3-3.67-.06-7.36-.09-11.01-.5-5.79-.65-11.55-1.54-17.3-2.44-3.7-.58-7.39-1.25-11.05-2.05-3.11-.68-6.17-1.58-9.24-2.42-2.61-.71-5.22-1.43-7.8-2.24-2.5-.78-4.98-1.65-7.44-2.55-2.92-1.07-5.82-2.16-8.7-3.32-3.24-1.31-6.44-2.74-9.67-4.07-7.24-2.99-14.03-6.88-20.76-10.81-6.75-3.94-13.3-8.22-19.42-13.11-4.49-3.59-9.06-7.07-13.4-10.84-3.8-3.29-7.36-6.86-10.95-10.38-8.52-8.35-16.17-17.48-22.99-27.25-4.61-6.61-9.02-13.38-13.04-20.36-3.21-5.58-6.4-11.21-8.76-17.26-1.44-3.7-3.35-7.22-4.85-10.9-1.59-3.9-2.96-7.9-4.42-11.86-.83-2.24-1.84-4.43-2.41-6.74-1.42-5.79-3.84-11.31-4.21-17.39-.26-4.32-1.39-8.46-3.99-12.1-1.69-2.37-4.08-3.66-6.69-4.33-2.57-.65-4.87,.66-6.78,2.31-3.36,2.91-5.05,6.82-5.52,11.11-.7,6.46-.16,12.92,.66,19.36,.35,2.77,.56,5.56,.92,8.33,.21,1.66,.61,3.29,.88,4.94,.76,4.64,1.41,9.3,2.28,13.92,.65,3.44,1.55,6.84,2.38,10.24,.64,2.63,1.29,5.27,2.06,7.87,1.48,4.96,2.97,9.92,4.6,14.83,1.53,4.61,3.21,9.17,4.88,13.73,2.36,6.45,5.37,12.61,8.44,18.74,3.15,6.28,6.49,12.44,10.19,18.42,4.33,7.01,9.06,13.73,14.15,20.2,2.37,3.01,4.8,5.98,7.26,8.92,.89,1.06,1.7,2.34,3.68,2.47,.1-.96,.24-1.86,.28-2.76,.18-4.55,.32-9.1,.52-13.65,.04-.87,.16-1.77,.46-2.58,.52-1.4,1.67-1.67,2.86-.77,.38,.29,.73,.64,1.02,1.01,2.04,2.66,4.11,5.3,6.08,8.01,2.69,3.69,3.62,7.94,3.71,12.42,.08,3.83,.18,7.67,.18,11.51,0,2.22,.64,4.1,2.37,5.52,4.31,3.55,8.64,7.08,12.99,10.58,.37,.3,.98,.3,1.62,.48,.09-.68,.19-1.14,.2-1.6,.02-2.39-.06-4.79,.05-7.18,.19-4.23,.49-8.45,.75-12.67,.03-.48,.1-.96,.19-1.43,.23-1.15,.17-2.54,1.51-3.05,1.34-.5,1.9,.84,2.78,1.45,4.27,2.94,8.48,5.98,12.87,8.72,4.19,2.61,8.59,4.9,12.89,7.33,3.96,2.24,7.85,4.6,11.9,6.66,2.84,1.45,4.14,3.63,4.18,6.68,.05,3.36,.02,6.71-.02,10.07-.03,3.12-.15,6.23-.16,9.35-.01,2.56,.69,3.39,3.01,4.25,3.5,1.3,6.96,2.73,10.45,4.06,.81,.31,1.68,.49,2.53,.69,2.12,.5,2.55,.14,2.39-2.07-.35-5.02-.78-10.04-1.08-15.06-.15-2.55-.12-5.11-.13-7.67,0-3.75,1.98-5.96,5.72-6.32,1.02-.1,2.07-.01,3.11,.08,3.82,.33,7.64,.67,11.45,1.07,4.21,.45,8.4,1.01,12.61,1.46,9.13,.98,18.25,2.15,27.41,2.78,5.44,.38,9.1,5.6,9.06,10.28-.03,3.12,0,6.23-.01,9.35,0,5.04-.02,10.07,0,15.11,0,2.79,.46,3.29,3.14,3.32,3.6,.04,7.19,.01,10.79-.01,.71,0,1.44-.1,2.13-.25,1.15-.24,1.81-.98,1.9-2.16,.06-.72,.05-1.44,.05-2.16,0-7.75-.02-15.51,0-23.26,0-2.58,.33-5.1,2-7.25,1.96-2.52,4.36-3.95,7.67-4.24,8.03-.71,16.04-1.73,24.06-2.58,6.51-.69,13.03-1.32,19.55-1.94,2.78-.26,5.57-.49,8.36-.6,1.34-.05,2.72,.07,4.03,.35,2.39,.51,3.72,2.12,3.79,4.57,.06,2.23,.03,4.48-.1,6.71-.3,5.02-.68,10.04-1.03,15.06-.03,.4-.1,.8-.09,1.19,.05,1.46,.66,2.02,1.96,1.5,4.44-1.78,8.84-3.65,13.24-5.52,1.02-.43,1.29-1.39,1.29-2.39,0-3.6,0-7.19-.05-10.79-.05-3.83-.25-7.67-.21-11.5,.03-2.79,1.14-5.05,3.71-6.54,5.24-3.05,10.46-6.15,15.61-9.34,5.84-3.62,11.41-7.65,16.6-12.16,2.05-1.78,4.08-3.58,6.13-5.36,1.39-1.21,2.13-1.13,2.92,.57,.56,1.21,1.07,2.55,1.16,3.85,.47,7.09,.81,14.19,1.2,21.29,.03,.46,.12,.92,.18,1.34,1.1,.63,1.77-.03,2.41-.61,3.98-3.57,7.94-7.17,11.94-10.73,1.35-1.21,1.9-2.69,1.89-4.47,0-3.76,.19-7.52,.04-11.27-.15-3.69,.57-7.22,1.91-10.54,1.69-4.2,3.86-8.22,5.89-12.29,.42-.84,1.12-1.54,1.75-2.26,.76-.87,1.64-1.59,2.91-1.28,1.3,.31,1.74,1.39,1.88,2.53,.35,2.93,.62,5.87,.87,8.81,.09,1.03-.06,2.08,.03,3.12,.28,3.27-.17,6.36-2.11,9.11-.21,.3-.28,.7-.49,1.24,1.33,.23,1.92-.66,2.43-1.32,3.34-4.38,6.7-8.74,9.86-13.24,2.98-4.24,5.88-8.55,8.51-13.01,3.97-6.73,7.98-13.46,11.09-20.65,1.93-4.46,3.78-8.96,5.6-13.47,1.46-3.62,2.93-7.24,4.19-10.93,1.38-4.07,2.54-8.22,3.77-12.34,.8-2.67,1.63-5.34,2.33-8.04,.81-3.16,1.52-6.35,2.21-9.54,.57-2.65,1.11-5.31,1.58-7.97,.81-4.64,1.55-9.29,2.32-13.94,.25-1.5,.55-2.99,.72-4.49,.39-3.33,.83-6.66,1.03-10.01,.45-7.57,.84-15.16,1.12-22.74,.17-4.55,.14-9.1,.09-13.65-.02-1.83-.49-3.65-.51-5.48-.08-6.07,2.71-10.56,7.93-13.5,4.47-2.51,9.4-2.8,14.21-1.67,5.5,1.3,9.7,4.65,12.35,9.82,1.08,2.1,1.72,4.24,1.99,6.57,.82,7.06,1.84,14.09,2.57,21.16,.37,3.57,.35,7.18,.42,10.78,.13,6.31,.47,12.63,.23,18.93-.33,8.45-.16,16.93-1.62,25.33-.96,5.5-1.35,11.09-2.19,16.61-.56,3.62-1.45,7.19-2.25,10.76-.73,3.27-1.48,6.54-2.33,9.77-.75,2.84-1.64,5.65-2.49,8.47-.58,1.91-1.12,3.83-1.8,5.7-2.19,6.07-4.34,12.16-6.69,18.17-1.21,3.11-2.74,6.1-4.22,9.09-2.68,5.43-5.27,10.91-8.17,16.23-4.13,7.58-8.9,14.75-13.83,21.84-4.75,6.83-9.89,13.36-15.36,19.6-6.36,7.27-13.1,14.19-20.25,20.72-10.88,9.94-22.42,18.99-34.86,26.87-6.53,4.14-13.19,8.08-19.94,11.85-5.22,2.91-10.61,5.53-16.04,8.03-4.25,1.96-8.67,3.56-13.02,5.31-3.24,1.31-6.45,2.68-9.72,3.9-2.23,.83-4.55,1.45-6.82,2.17-2.12,.67-4.25,1.35-6.37,2.02-2.58,.82-5.15,1.67-7.74,2.44-1.83,.54-3.69,1-5.56,1.42-3.18,.73-6.37,1.43-9.57,2.09-3.67,.76-7.33,1.55-11.03,2.15-5.59,.91-11.2,1.7-16.82,2.46-3.32,.45-6.66,.84-10,1.07-4.14,.28-8.3,.52-12.45,.52-9.51-.01-19.03,.17-28.51-.4-6.83-.41-13.71-.86-20.45-2.32-1.4-.3-2.86-.29-4.28-.51-1.57-.24-3.13-.59-4.7-.88-1.02-.19-2.04-.37-3.05-.57-1.56-.31-3.11-.62-4.67-.96-.7-.15-1.39-.37-2.08-.54-3.94-.97-7.88-1.91-11.82-2.9-2.55-.64-5.1-1.29-7.63-2-1.99-.56-3.98-1.16-5.92-1.86-3.52-1.27-7.02-2.57-10.5-3.96-5.33-2.12-10.66-4.22-15.91-6.53-3.86-1.7-7.62-3.63-11.35-5.61-4.08-2.17-8.15-4.39-12.05-6.85-5.46-3.44-10.82-7.05-16.13-10.72-3.74-2.59-7.34-5.38-10.96-8.13-1.84-1.4-3.64-2.86-5.36-4.41-3.74-3.36-7.49-6.71-11.1-10.21-4.13-4-8.31-7.99-12.12-12.29-7.26-8.19-14.33-16.54-20.38-25.7-3.08-4.66-6.35-9.2-9.25-13.98-3.23-5.31-6.24-10.77-9.15-16.26-3.06-5.78-5.95-11.64-8.79-17.53-1.35-2.79-2.44-5.71-3.59-8.6-2.07-5.18-4.18-10.35-6.11-15.58-1.4-3.81-2.54-7.72-3.75-11.59-1.33-4.25-2.66-8.51-3.9-12.79-.82-2.83-1.48-5.7-2.2-8.56-.82-3.24-1.63-6.49-2.43-9.73-.23-.93-.42-1.86-.59-2.8-.15-.86-.13-1.78-.4-2.6-1.49-4.51-1.9-9.24-2.39-13.9-.82-7.86-1.27-15.76-1.71-23.66-.57-10.24,.12-20.45,1.19-30.63,.62-5.95,1.19-11.92,2.04-17.84,.57-4.02,1.56-7.98,2.4-11.96,.71-3.35,1.42-6.71,2.25-10.03,.64-2.55,1.45-5.06,2.2-7.58,.68-2.29,1.36-4.58,2.1-6.85,.87-2.64,1.79-5.26,2.72-7.89,.66-1.88,1.33-3.76,2.08-5.6,1.32-3.24,2.61-6.51,4.09-9.68,2.85-6.14,5.8-12.24,8.77-18.32,1.01-2.08,2.12-4.13,3.36-6.07,3.95-6.19,7.82-12.44,12.04-18.45,4.17-5.94,8.58-11.73,13.16-17.35,3.63-4.45,7.72-8.52,11.55-12.81,6.44-7.24,13.76-13.57,21.08-19.86,5.08-4.37,10.49-8.36,15.88-12.33,4.43-3.27,8.97-6.41,13.62-9.35,5.12-3.23,10.4-6.23,15.67-9.21,4.09-2.31,8.27-4.49,12.46-6.61,2.91-1.47,5.89-2.81,8.89-4.11,4.67-2.02,9.31-4.1,14.07-5.9,5.2-1.96,10.5-3.69,15.79-5.4,4.46-1.45,8.95-2.82,13.47-4.06,3.07-.84,6.22-1.41,9.33-2.08,3.66-.78,7.31-1.65,11-2.29,5.1-.87,10.24-1.58,15.36-2.32,3.24-.46,6.48-.99,9.74-1.24,4.22-.32,8.46-.3,12.69-.58,9.75-.64,19.5-.11,29.21,.46,6.83,.4,13.68,1.2,20.41,2.65,3.73,.8,7.55,1.21,11.3,1.94,2.73,.53,5.43,1.26,8.13,1.98,3.39,.9,6.79,1.76,10.12,2.83,3.71,1.19,7.35,2.59,11.02,3.9,1.65,.59,3.34,1.07,4.94,1.76,4.89,2.11,9.79,4.23,14.61,6.49,4.11,1.92,8.21,3.91,12.17,6.11,8.44,4.69,16.54,9.93,24.26,15.73,10.36,7.78,20.09,16.3,28.92,25.8,8.33,8.96,15.95,18.5,22.96,28.54,1.87,2.68,2.26,5.13,1.76,8.27-.61,3.8-1.95,7.22-3.85,10.46-2.17,3.7-5.26,6.62-8.71,9.11-4.06,2.93-8.67,4.69-13.56,5.66-3.96,.79-7.9,.83-11.81-.58-1.72-.62-3.61-.83-5.01-2.12-1.22-1.13-2.43-2.28-3.48-3.56-4.4-5.37-8.68-10.85-13.11-16.19-5.42-6.54-11.59-12.36-18.01-17.88-4.65-3.99-9.53-7.75-14.56-11.27-5.16-3.61-10.49-7.01-15.99-10.08-4.78-2.67-9.84-4.89-14.88-7.05-4.9-2.09-9.87-4.08-14.95-5.68-4.85-1.53-9.86-2.59-14.84-3.66-4.52-.97-9.07-1.83-13.65-2.47-3.47-.49-7-.59-10.5-.79-2.79-.16-5.59-.34-8.38-.29-5.91,.1-11.82,.32-17.72,.54-1.27,.05-2.54,.3-3.8,.46-2.85,.37-5.71,.67-8.54,1.15-3.3,.56-6.6,1.17-9.86,1.97-5.42,1.33-10.83,2.71-16.18,4.31-3.81,1.13-7.52,2.6-11.24,4.01-2.97,1.13-5.95,2.27-8.82,3.63-5.03,2.39-10.06,4.8-14.93,7.5-5.51,3.04-10.96,6.21-16.21,9.68-6.93,4.57-13.4,9.77-19.7,15.2-6.38,5.5-12.22,11.49-17.68,17.86-2.59,3.03-5,6.22-7.44,9.38-4.85,6.27-8.92,13.04-12.67,19.99-2.84,5.25-5.23,10.74-7.12,16.43-1.33,4.01-2.74,7.99-3.94,12.03-.72,2.44-1.29,4.96-1.6,7.48-.74,6.02-1.97,11.97-1.98,18.09,0,7.05,.19,14.06,1.37,21.02,.71,4.16,1.06,8.4,1.99,12.51,1.12,4.97,2.61,9.86,4.07,14.74,1.12,3.73,2.32,7.45,3.73,11.09,1.5,3.86,3.17,7.65,4.96,11.38,3.77,7.85,8.1,15.39,12.91,22.65,7.84,11.83,17.01,22.55,27.25,32.38,7.11,6.83,14.85,12.85,22.88,18.5,3.64,2.56,7.62,4.64,11.49,6.87,3.1,1.79,6.2,3.61,9.41,5.2,3.06,1.51,6.25,2.78,9.42,4.08,3.09,1.27,6.2,2.51,9.35,3.62,2.77,.98,5.6,1.83,8.44,2.63,3.14,.88,6.32,1.64,9.49,2.46,.23,.06,.45,.17,.69,.21,4.17,.68,8.32,1.44,12.5,1.99,4.35,.57,8.73,1.09,13.11,1.33,8.95,.49,17.89,.36,26.78-1,2.84-.43,5.74-.5,8.54-1.06,5.7-1.14,11.36-2.47,17.02-3.78,5.27-1.22,10.47-2.7,15.51-4.69,3.84-1.52,7.66-3.08,11.53-4.51,6.36-2.36,12.38-5.47,18.33-8.66,6.53-3.5,12.91-7.31,19.19-11.24,11.18-7,21.69-14.95,31.73-23.51,5.28-4.5,10.34-9.27,15.52-13.9,8.41-7.52,16.14-15.73,23.62-24.14,6.84-7.69,13.33-15.69,19.96-23.57,1.44-1.71,2.76-3.52,4.19-5.24,.57-.69,1.31-1.24,1.97-1.85l.75,.42Z"/></svg>